# xmcd
#
# Track frame offsets:
#	150
#	22705
#	45017
#	68515
#	82635
#	108292
#	129617
#	153647
#	181527
#	201422
#	221915
#	242165
#	259042
#	279705
#
# Disc length: 3980 seconds
# Revision: 0
# Processed by: cddbd v1.5.2PL0 Copyright (c) Steve Scherf et al.
# Submitted via: dBpowerAMP V12.0
#
DISCID=b10f8a0e
DTITLE=Ronnie Lovejoy - Until You Get Enough of me
DYEAR=1998
DGENRE=Soul
TTITLE0=Until You Get Enough of me
TTITLE1=I Need Somebody
TTITLE2=Lying Loving or Leaving
TTITLE3=What's Done in The Dark
TTITLE4=Keep on Singing The Blues
TTITLE5=Doesn't Get Any Better
TTITLE6=Not Like it Used to
TTITLE7=Please Come Home
TTITLE8=Bring it on
TTITLE9=Missing You
TTITLE10=God Will
TTITLE11=Falling in Love Again
TTITLE12=What Does it Take
TTITLE13=Rock And a Hard Place
EXTD=
EXTT0=
EXTT1=
EXTT2=
EXTT3=
EXTT4=
EXTT5=
EXTT6=
EXTT7=
EXTT8=
EXTT9=
EXTT10=
EXTT11=
EXTT12=
EXTT13=
PLAYORDER=
